<svg width="387" height="96" viewBox="0 0 387 96" fill="none" xmlns="http://www.w3.org/2000/svg">
<g opacity="0.5">
<mask id="path-1-inside-1" fill="white">
<path fill-rule="evenodd" clip-rule="evenodd" d="M92.3077 0H3.69232V3.69231H9.94439e-06L4.97219e-06 18.4615V22.1539H3.69231H92.3077V18.4615H96V3.69231H92.3077V0ZM3.69231 22.1539V18.4615H4.97219e-06L9.94439e-06 22.1538L3.69231 22.1539ZM139.748 4.78846H102.151V94H139.748C149.179 94 157.547 92.1308 164.854 88.3924C172.161 84.654 177.811 79.4288 181.805 72.7167C185.883 65.9196 187.922 58.1455 187.922 49.3942C187.922 40.643 185.883 32.9113 181.805 26.1992C177.811 19.4022 172.161 14.1344 164.854 10.396C157.547 6.65766 149.179 4.78846 139.748 4.78846ZM157.972 78.7066C152.535 81.5104 146.205 82.9123 138.983 82.9123H114.896V15.8762H138.983C146.205 15.8762 152.535 17.2781 157.972 20.0819C163.495 22.8857 167.743 26.8365 170.717 31.9343C173.691 36.9471 175.177 42.7671 175.177 49.3942C175.177 56.0214 173.691 61.8838 170.717 66.9817C167.743 71.9945 163.495 75.9028 157.972 78.7066ZM220.187 4.78846H207.443V94H220.187V4.78846ZM234.024 15.8762H264.611V94H277.228V15.8762H307.815V4.78846H234.024V15.8762ZM386.437 94V82.9123H334.44V54.1097H379.173V43.2769H334.44V15.8762H384.653V4.78846H321.695V94H386.437ZM3.69231 36.9231H92.3077V40.6154H96V55.3846H92.3077V59.0769H3.69231V55.3846H0L4.97219e-06 40.6154H3.69231V36.9231ZM0 55.3846V59.0769H3.69231L4.97219e-06 59.0769L0 55.3846ZM92.3077 73.8461H3.69231V77.5384H4.97219e-06L0 92.3077V96H3.69231H92.3077V92.3077H96V77.5384H92.3077V73.8461ZM3.69231 96V92.3077H0L4.97219e-06 96L3.69231 96Z"/>
</mask>
<path fill-rule="evenodd" clip-rule="evenodd" d="M92.3077 0H3.69232V3.69231H9.94439e-06L4.97219e-06 18.4615V22.1539H3.69231H92.3077V18.4615H96V3.69231H92.3077V0ZM3.69231 22.1539V18.4615H4.97219e-06L9.94439e-06 22.1538L3.69231 22.1539ZM139.748 4.78846H102.151V94H139.748C149.179 94 157.547 92.1308 164.854 88.3924C172.161 84.654 177.811 79.4288 181.805 72.7167C185.883 65.9196 187.922 58.1455 187.922 49.3942C187.922 40.643 185.883 32.9113 181.805 26.1992C177.811 19.4022 172.161 14.1344 164.854 10.396C157.547 6.65766 149.179 4.78846 139.748 4.78846ZM157.972 78.7066C152.535 81.5104 146.205 82.9123 138.983 82.9123H114.896V15.8762H138.983C146.205 15.8762 152.535 17.2781 157.972 20.0819C163.495 22.8857 167.743 26.8365 170.717 31.9343C173.691 36.9471 175.177 42.7671 175.177 49.3942C175.177 56.0214 173.691 61.8838 170.717 66.9817C167.743 71.9945 163.495 75.9028 157.972 78.7066ZM220.187 4.78846H207.443V94H220.187V4.78846ZM234.024 15.8762H264.611V94H277.228V15.8762H307.815V4.78846H234.024V15.8762ZM386.437 94V82.9123H334.44V54.1097H379.173V43.2769H334.44V15.8762H384.653V4.78846H321.695V94H386.437ZM3.69231 36.9231H92.3077V40.6154H96V55.3846H92.3077V59.0769H3.69231V55.3846H0L4.97219e-06 40.6154H3.69231V36.9231ZM0 55.3846V59.0769H3.69231L4.97219e-06 59.0769L0 55.3846ZM92.3077 73.8461H3.69231V77.5384H4.97219e-06L0 92.3077V96H3.69231H92.3077V92.3077H96V77.5384H92.3077V73.8461ZM3.69231 96V92.3077H0L4.97219e-06 96L3.69231 96Z" fill="white"/>
<path d="M3.69232 0V-0.369231H3.32309V0H3.69232ZM92.3077 0H92.6769V-0.369231H92.3077V0ZM3.69232 3.69231V4.06154H4.06155V3.69231H3.69232ZM9.94439e-06 3.69231V3.32308H-0.369221L-0.369221 3.69231L9.94439e-06 3.69231ZM4.97219e-06 18.4615L-0.369226 18.4615L-0.369226 18.4615L4.97219e-06 18.4615ZM4.97219e-06 22.1539H-0.369226V22.5231H4.97219e-06V22.1539ZM92.3077 22.1539V22.5231H92.6769V22.1539H92.3077ZM92.3077 18.4615V18.0923H91.9385V18.4615H92.3077ZM96 18.4615V18.8308H96.3692V18.4615H96ZM96 3.69231H96.3692V3.32308H96V3.69231ZM92.3077 3.69231H91.9385V4.06154H92.3077V3.69231ZM3.69231 18.4615H4.06154V18.0923H3.69231V18.4615ZM9.94439e-06 22.1538L-0.369221 22.1538L-0.36922 22.5231L8.99071e-06 22.5231L9.94439e-06 22.1538ZM102.151 4.78846V4.41923H101.782V4.78846H102.151ZM102.151 94H101.782V94.3692H102.151V94ZM181.805 72.7167L181.488 72.5267L181.487 72.5279L181.805 72.7167ZM181.805 26.1992L181.486 26.3863L181.489 26.391L181.805 26.1992ZM164.854 10.396L164.686 10.7248L164.686 10.7248L164.854 10.396ZM157.972 78.7066L157.805 78.3774L157.803 78.3784L157.972 78.7066ZM114.896 82.9123H114.527V83.2815H114.896V82.9123ZM114.896 15.8762V15.507H114.527V15.8762H114.896ZM157.972 20.0819L157.803 20.41L157.805 20.4111L157.972 20.0819ZM170.717 31.9343L170.398 32.1203L170.399 32.1226L170.717 31.9343ZM170.717 66.9817L171.034 67.17L171.036 67.1677L170.717 66.9817ZM207.443 4.78846V4.41923H207.074V4.78846H207.443ZM220.187 4.78846H220.557V4.41923H220.187V4.78846ZM207.443 94H207.074V94.3692H207.443V94ZM220.187 94V94.3692H220.557V94H220.187ZM264.611 15.8762H264.98V15.507H264.611V15.8762ZM234.024 15.8762H233.655V16.2454H234.024V15.8762ZM264.611 94H264.242V94.3692H264.611V94ZM277.228 94V94.3692H277.597V94H277.228ZM277.228 15.8762V15.507H276.859V15.8762H277.228ZM307.815 15.8762V16.2454H308.184V15.8762H307.815ZM307.815 4.78846H308.184V4.41923H307.815V4.78846ZM234.024 4.78846V4.41923H233.655V4.78846H234.024ZM386.437 82.9123H386.807V82.543H386.437V82.9123ZM386.437 94V94.3692H386.807V94H386.437ZM334.44 82.9123H334.071V83.2815H334.44V82.9123ZM334.44 54.1097V53.7405H334.071V54.1097H334.44ZM379.173 54.1097V54.4789H379.542V54.1097H379.173ZM379.173 43.2769H379.542V42.9076H379.173V43.2769ZM334.44 43.2769H334.071V43.6461H334.44V43.2769ZM334.44 15.8762V15.507H334.071V15.8762H334.44ZM384.653 15.8762V16.2454H385.022V15.8762H384.653ZM384.653 4.78846H385.022V4.41923H384.653V4.78846ZM321.695 4.78846V4.41923H321.326V4.78846H321.695ZM321.695 94H321.326V94.3692H321.695V94ZM92.3077 36.9231H92.6769V36.5538H92.3077V36.9231ZM3.69231 36.9231V36.5538H3.32308V36.9231H3.69231ZM92.3077 40.6154H91.9385V40.9846H92.3077V40.6154ZM96 40.6154H96.3692V40.2461H96V40.6154ZM96 55.3846V55.7538H96.3692V55.3846H96ZM92.3077 55.3846V55.0154H91.9385V55.3846H92.3077ZM92.3077 59.0769V59.4462H92.6769V59.0769H92.3077ZM3.69231 55.3846H4.06154V55.0154H3.69231V55.3846ZM0 55.3846L-0.369231 55.3846L-0.369231 55.3846L0 55.3846ZM4.97219e-06 40.6154V40.2461H-0.369226L-0.369226 40.6154L4.97219e-06 40.6154ZM3.69231 40.6154V40.9846H4.06154V40.6154H3.69231ZM0 59.0769H-0.369231V59.4462H0V59.0769ZM4.97219e-06 59.0769L-0.369226 59.0769L-0.369225 59.4461L3.82778e-06 59.4461L4.97219e-06 59.0769ZM3.69231 73.8461V73.4769H3.32308V73.8461H3.69231ZM92.3077 73.8461H92.6769V73.4769H92.3077V73.8461ZM3.69231 77.5384V77.9077H4.06154V77.5384H3.69231ZM4.97219e-06 77.5384V77.1692H-0.369226L-0.369226 77.5384L4.97219e-06 77.5384ZM0 92.3077L-0.369231 92.3077L-0.369231 92.3077L0 92.3077ZM0 96H-0.369231V96.3692H0V96ZM92.3077 96V96.3692H92.6769V96H92.3077ZM92.3077 92.3077V91.9385H91.9385V92.3077H92.3077ZM96 92.3077V92.6769H96.3692V92.3077H96ZM96 77.5384H96.3692V77.1692H96V77.5384ZM92.3077 77.5384H91.9385V77.9077H92.3077V77.5384ZM3.69231 92.3077H4.06154V91.9385H3.69231V92.3077ZM4.97219e-06 96L-0.369226 96L-0.369225 96.3692L3.44631e-06 96.3692L4.97219e-06 96ZM3.69232 0.369231H92.3077V-0.369231H3.69232V0.369231ZM4.06155 3.69231V0H3.32309V3.69231H4.06155ZM9.94439e-06 4.06154H3.69232V3.32308H9.94439e-06V4.06154ZM0.369236 18.4615L0.369241 3.69231L-0.369221 3.69231L-0.369226 18.4615L0.369236 18.4615ZM-0.369226 18.4615V22.1539H0.369236V18.4615H-0.369226ZM4.97219e-06 22.5231H3.69231V21.7846H4.97219e-06V22.5231ZM92.3077 21.7846H3.69231V22.5231H92.3077V21.7846ZM91.9385 18.4615V22.1539H92.6769V18.4615H91.9385ZM96 18.0923H92.3077V18.8308H96V18.0923ZM95.6308 3.69231V18.4615H96.3692V3.69231H95.6308ZM92.3077 4.06154H96V3.32308H92.3077V4.06154ZM91.9385 0V3.69231H92.6769V0H91.9385ZM4.06154 22.1539V18.4615H3.32308V22.1539H4.06154ZM3.69231 18.0923H4.97219e-06V18.8308H3.69231V18.0923ZM0.369241 22.1538L0.369236 18.4615L-0.369226 18.4615L-0.369221 22.1538L0.369241 22.1538ZM3.69231 21.7846L1.08981e-05 21.7846L8.99071e-06 22.5231L3.69231 22.5231L3.69231 21.7846ZM102.151 5.15769H139.748V4.41923H102.151V5.15769ZM102.521 94V4.78846H101.782V94H102.521ZM139.748 93.6308H102.151V94.3692H139.748V93.6308ZM164.686 88.0637C157.439 91.7717 149.129 93.6308 139.748 93.6308V94.3692C149.228 94.3692 157.656 92.4899 165.023 88.7211L164.686 88.0637ZM181.487 72.5279C177.531 79.1771 171.934 84.3553 164.686 88.0637L165.023 88.7211C172.388 84.9528 178.091 79.6804 182.122 72.9055L181.487 72.5279ZM187.553 49.3942C187.553 58.0857 185.528 65.7929 181.488 72.5267L182.121 72.9066C186.237 66.0463 188.291 58.2052 188.291 49.3942H187.553ZM181.489 26.391C185.528 33.0388 187.553 40.7027 187.553 49.3942H188.291C188.291 40.5833 186.237 32.7838 182.12 26.0075L181.489 26.391ZM164.686 10.7248C171.933 14.4325 177.53 19.6523 181.486 26.3863L182.123 26.0122C178.093 19.152 172.389 13.8363 165.023 10.0673L164.686 10.7248ZM139.748 5.15769C149.129 5.15769 157.439 7.01672 164.686 10.7248L165.023 10.0673C157.656 6.2986 149.228 4.41923 139.748 4.41923V5.15769ZM138.983 83.2815C146.253 83.2815 152.643 81.87 158.142 79.0348L157.803 78.3784C152.426 81.1508 146.157 82.543 138.983 82.543V83.2815ZM114.896 83.2815H138.983V82.543H114.896V83.2815ZM114.527 15.8762V82.9123H115.265V15.8762H114.527ZM138.983 15.507H114.896V16.2454H138.983V15.507ZM158.142 19.7537C152.643 16.9185 146.253 15.507 138.983 15.507V16.2454C146.157 16.2454 152.426 17.6377 157.803 20.41L158.142 19.7537ZM171.036 31.7482C168.024 26.586 163.722 22.5869 158.139 19.7526L157.805 20.4111C163.268 23.1844 167.462 27.0869 170.398 32.1203L171.036 31.7482ZM175.547 49.3942C175.547 42.7101 174.046 36.8232 171.034 31.7459L170.399 32.1226C173.335 37.071 174.808 42.8241 174.808 49.3942H175.547ZM171.036 67.1677C174.046 62.0067 175.547 56.0785 175.547 49.3942H174.808C174.808 55.9642 173.335 61.761 170.398 66.7956L171.036 67.1677ZM158.139 79.0358C163.72 76.2024 168.023 72.247 171.034 67.17L170.399 66.7933C167.464 71.742 163.269 75.6032 157.805 78.3774L158.139 79.0358ZM207.443 5.15769H220.187V4.41923H207.443V5.15769ZM207.812 94V4.78846H207.074V94H207.812ZM220.187 93.6308H207.443V94.3692H220.187V93.6308ZM219.818 4.78846V94H220.557V4.78846H219.818ZM264.611 15.507H234.024V16.2454H264.611V15.507ZM264.98 94V15.8762H264.242V94H264.98ZM277.228 93.6308H264.611V94.3692H277.228V93.6308ZM276.859 15.8762V94H277.597V15.8762H276.859ZM307.815 15.507H277.228V16.2454H307.815V15.507ZM307.446 4.78846V15.8762H308.184V4.78846H307.446ZM234.024 5.15769H307.815V4.41923H234.024V5.15769ZM234.393 15.8762V4.78846H233.655V15.8762H234.393ZM386.068 82.9123V94H386.807V82.9123H386.068ZM334.44 83.2815H386.437V82.543H334.44V83.2815ZM334.071 54.1097V82.9123H334.809V54.1097H334.071ZM379.173 53.7405H334.44V54.4789H379.173V53.7405ZM378.804 43.2769V54.1097H379.542V43.2769H378.804ZM334.44 43.6461H379.173V42.9076H334.44V43.6461ZM334.071 15.8762V43.2769H334.809V15.8762H334.071ZM384.653 15.507H334.44V16.2454H384.653V15.507ZM384.284 4.78846V15.8762H385.022V4.78846H384.284ZM321.695 5.15769H384.653V4.41923H321.695V5.15769ZM322.065 94V4.78846H321.326V94H322.065ZM386.437 93.6308H321.695V94.3692H386.437V93.6308ZM92.3077 36.5538H3.69231V37.2923H92.3077V36.5538ZM92.6769 40.6154V36.9231H91.9385V40.6154H92.6769ZM96 40.2461H92.3077V40.9846H96V40.2461ZM96.3692 55.3846V40.6154H95.6308V55.3846H96.3692ZM92.3077 55.7538H96V55.0154H92.3077V55.7538ZM92.6769 59.0769V55.3846H91.9385V59.0769H92.6769ZM3.69231 59.4462H92.3077V58.7077H3.69231V59.4462ZM4.06154 59.0769V55.3846H3.32308V59.0769H4.06154ZM3.69231 55.0154H0V55.7538H3.69231V55.0154ZM-0.369226 40.6154L-0.369231 55.3846L0.369231 55.3846L0.369236 40.6154L-0.369226 40.6154ZM3.69231 40.2461H4.97219e-06V40.9846H3.69231V40.2461ZM3.32308 36.9231V40.6154H4.06154V36.9231H3.32308ZM-0.369231 55.3846V59.0769H0.369231V55.3846H-0.369231ZM0 59.4462H3.69231V58.7077H0V59.4462ZM3.82778e-06 59.4461L3.69231 59.4462L3.69231 58.7077L6.1166e-06 58.7077L3.82778e-06 59.4461ZM-0.369231 55.3846L-0.369226 59.0769L0.369236 59.0769L0.369231 55.3846L-0.369231 55.3846ZM3.69231 74.2154H92.3077V73.4769H3.69231V74.2154ZM3.32308 73.8461V77.5384H4.06154V73.8461H3.32308ZM3.69231 77.1692H4.97219e-06V77.9077H3.69231V77.1692ZM0.369231 92.3077L0.369236 77.5384L-0.369226 77.5384L-0.369231 92.3077L0.369231 92.3077ZM-0.369231 92.3077V96H0.369231V92.3077H-0.369231ZM0 96.3692H3.69231V95.6308H0V96.3692ZM92.3077 95.6308H3.69231V96.3692H92.3077V95.6308ZM91.9385 92.3077V96H92.6769V92.3077H91.9385ZM96 91.9385H92.3077V92.6769H96V91.9385ZM95.6308 77.5384V92.3077H96.3692V77.5384H95.6308ZM92.3077 77.9077H96V77.1692H92.3077V77.9077ZM91.9385 73.8461V77.5384H92.6769V73.8461H91.9385ZM4.06154 96V92.3077H3.32308V96H4.06154ZM3.69231 91.9385H0V92.6769H3.69231V91.9385ZM0.369236 96L0.369231 92.3077L-0.369231 92.3077L-0.369226 96L0.369236 96ZM3.69231 95.6308L6.49807e-06 95.6308L3.44631e-06 96.3692L3.69231 96.3692L3.69231 95.6308Z" fill="#18A0FB" mask="url(#path-1-inside-1)"/>
</g>
</svg>
