<svg width="178" height="178" viewBox="0 0 178 178" fill="none" xmlns="http://www.w3.org/2000/svg">
<path fill-rule="evenodd" clip-rule="evenodd" d="M89 0C74.3177 0.046041 60.136 5.3415 49.0168 14.9298C40.495 22.2723 34.3206 31.8397 32.7297 41.4406C14.0842 45.5569 0 61.7994 0 81.4128C0 104.197 19.0015 122.375 42.0636 122.375H83.4375V63.4904L59.5633 87.3757C58.5188 88.4202 57.1021 89.007 55.625 89.007C54.1479 89.007 52.7312 88.4202 51.6867 87.3757C50.6423 86.3313 50.0555 84.9146 50.0555 83.4375C50.0555 81.9604 50.6423 80.5437 51.6867 79.4993L85.0618 46.1242C85.5785 45.6062 86.1923 45.1952 86.8681 44.9148C87.5439 44.6344 88.2683 44.4901 89 44.4901C89.7317 44.4901 90.4561 44.6344 91.1319 44.9148C91.8077 45.1952 92.4215 45.6062 92.9382 46.1242L126.313 79.4993C127.358 80.5437 127.945 81.9604 127.945 83.4375C127.945 84.9146 127.358 86.3313 126.313 87.3757C125.269 88.4202 123.852 89.007 122.375 89.007C120.898 89.007 119.481 88.4202 118.437 87.3757L94.5625 63.4904V122.375H141.154C161.335 122.375 178 106.466 178 86.4746C178 68.2741 164.183 53.4445 146.472 50.9414C143.768 22.2389 118.926 0 89 0ZM83.4375 161.312V122.375H94.5625V161.312C94.5625 162.788 93.9765 164.203 92.9333 165.246C91.8901 166.289 90.4753 166.875 89 166.875C87.5247 166.875 86.1099 166.289 85.0667 165.246C84.0236 164.203 83.4375 162.788 83.4375 161.312Z" fill="#F5F5F5"/>
</svg>
